<mxfile host="app.diagrams.net" modified="2023-12-17T08:01:11.069Z" agent="Mozilla/5.0 (Windows NT 10.0; Win64; x64) AppleWebKit/537.36 (KHTML, like Gecko) Chrome/120.0.0.0 Safari/537.36" etag="neBQ7V7CjOhtUoSxZrEy" version="22.1.11" type="device">
  <diagram name="Page-1" id="2YBvvXClWsGukQMizWep">
    <mxGraphModel dx="1050" dy="522" grid="1" gridSize="10" guides="1" tooltips="1" connect="1" arrows="1" fold="1" page="1" pageScale="1" pageWidth="850" pageHeight="1100" math="0" shadow="0">
      <root>
        <mxCell id="0" />
        <mxCell id="1" parent="0" />
        <mxCell id="ty_Gd_E8p09g91dcB47R-13" style="rounded=0;orthogonalLoop=1;jettySize=auto;html=1;" edge="1" parent="1" target="ty_Gd_E8p09g91dcB47R-8">
          <mxGeometry relative="1" as="geometry">
            <mxPoint x="49.5" y="90" as="sourcePoint" />
            <mxPoint x="180" y="90" as="targetPoint" />
          </mxGeometry>
        </mxCell>
        <mxCell id="ty_Gd_E8p09g91dcB47R-14" value="Post /neoris/user/registro" style="edgeLabel;html=1;align=center;verticalAlign=middle;resizable=0;points=[];" vertex="1" connectable="0" parent="ty_Gd_E8p09g91dcB47R-13">
          <mxGeometry x="-0.1838" y="-3" relative="1" as="geometry">
            <mxPoint as="offset" />
          </mxGeometry>
        </mxCell>
        <mxCell id="ty_Gd_E8p09g91dcB47R-7" value="" style="shape=umlLifeline;perimeter=lifelinePerimeter;whiteSpace=wrap;html=1;container=1;dropTarget=0;collapsible=0;recursiveResize=0;outlineConnect=0;portConstraint=eastwest;newEdgeStyle={&quot;curved&quot;:0,&quot;rounded&quot;:0};participant=umlActor;" vertex="1" parent="1">
          <mxGeometry x="40" y="10" width="20" height="300" as="geometry" />
        </mxCell>
        <mxCell id="ty_Gd_E8p09g91dcB47R-8" value="Controller" style="shape=umlLifeline;perimeter=lifelinePerimeter;whiteSpace=wrap;html=1;container=1;dropTarget=0;collapsible=0;recursiveResize=0;outlineConnect=0;portConstraint=eastwest;newEdgeStyle={&quot;curved&quot;:0,&quot;rounded&quot;:0};" vertex="1" parent="1">
          <mxGeometry x="160" y="10" width="100" height="300" as="geometry" />
        </mxCell>
        <mxCell id="ty_Gd_E8p09g91dcB47R-15" value="" style="html=1;points=[[0,0,0,0,5],[0,1,0,0,-5],[1,0,0,0,5],[1,1,0,0,-5]];perimeter=orthogonalPerimeter;outlineConnect=0;targetShapes=umlLifeline;portConstraint=eastwest;newEdgeStyle={&quot;curved&quot;:0,&quot;rounded&quot;:0};" vertex="1" parent="ty_Gd_E8p09g91dcB47R-8">
          <mxGeometry x="45" y="60" width="10" height="230" as="geometry" />
        </mxCell>
        <mxCell id="ty_Gd_E8p09g91dcB47R-9" value="Service" style="shape=umlLifeline;perimeter=lifelinePerimeter;whiteSpace=wrap;html=1;container=1;dropTarget=0;collapsible=0;recursiveResize=0;outlineConnect=0;portConstraint=eastwest;newEdgeStyle={&quot;curved&quot;:0,&quot;rounded&quot;:0};" vertex="1" parent="1">
          <mxGeometry x="320" y="10" width="100" height="300" as="geometry" />
        </mxCell>
        <mxCell id="ty_Gd_E8p09g91dcB47R-18" value="" style="html=1;points=[[0,0,0,0,5],[0,1,0,0,-5],[1,0,0,0,5],[1,1,0,0,-5]];perimeter=orthogonalPerimeter;outlineConnect=0;targetShapes=umlLifeline;portConstraint=eastwest;newEdgeStyle={&quot;curved&quot;:0,&quot;rounded&quot;:0};" vertex="1" parent="ty_Gd_E8p09g91dcB47R-9">
          <mxGeometry x="40" y="60" width="10" height="80" as="geometry" />
        </mxCell>
        <mxCell id="ty_Gd_E8p09g91dcB47R-21" value="" style="html=1;points=[[0,0,0,0,5],[0,1,0,0,-5],[1,0,0,0,5],[1,1,0,0,-5]];perimeter=orthogonalPerimeter;outlineConnect=0;targetShapes=umlLifeline;portConstraint=eastwest;newEdgeStyle={&quot;curved&quot;:0,&quot;rounded&quot;:0};" vertex="1" parent="ty_Gd_E8p09g91dcB47R-9">
          <mxGeometry x="40" y="160" width="10" height="120" as="geometry" />
        </mxCell>
        <mxCell id="ty_Gd_E8p09g91dcB47R-10" value="Repository" style="shape=umlLifeline;perimeter=lifelinePerimeter;whiteSpace=wrap;html=1;container=1;dropTarget=0;collapsible=0;recursiveResize=0;outlineConnect=0;portConstraint=eastwest;newEdgeStyle={&quot;curved&quot;:0,&quot;rounded&quot;:0};" vertex="1" parent="1">
          <mxGeometry x="470" y="10" width="100" height="300" as="geometry" />
        </mxCell>
        <mxCell id="ty_Gd_E8p09g91dcB47R-26" value="" style="html=1;points=[[0,0,0,0,5],[0,1,0,0,-5],[1,0,0,0,5],[1,1,0,0,-5]];perimeter=orthogonalPerimeter;outlineConnect=0;targetShapes=umlLifeline;portConstraint=eastwest;newEdgeStyle={&quot;curved&quot;:0,&quot;rounded&quot;:0};" vertex="1" parent="ty_Gd_E8p09g91dcB47R-10">
          <mxGeometry x="45" y="190" width="10" height="80" as="geometry" />
        </mxCell>
        <mxCell id="ty_Gd_E8p09g91dcB47R-17" value="return" style="html=1;verticalAlign=bottom;endArrow=open;dashed=1;endSize=8;curved=0;rounded=0;" edge="1" parent="1">
          <mxGeometry relative="1" as="geometry">
            <mxPoint x="200" y="280" as="sourcePoint" />
            <mxPoint x="50" y="280" as="targetPoint" />
          </mxGeometry>
        </mxCell>
        <mxCell id="ty_Gd_E8p09g91dcB47R-19" value="validacion registro" style="html=1;verticalAlign=bottom;endArrow=block;curved=0;rounded=0;entryX=0;entryY=0;entryDx=0;entryDy=5;" edge="1" target="ty_Gd_E8p09g91dcB47R-18" parent="1" source="ty_Gd_E8p09g91dcB47R-8">
          <mxGeometry relative="1" as="geometry">
            <mxPoint x="290" y="75" as="sourcePoint" />
          </mxGeometry>
        </mxCell>
        <mxCell id="ty_Gd_E8p09g91dcB47R-20" value="return" style="html=1;verticalAlign=bottom;endArrow=open;dashed=1;endSize=8;curved=0;rounded=0;exitX=0;exitY=1;exitDx=0;exitDy=-5;" edge="1" source="ty_Gd_E8p09g91dcB47R-18" parent="1" target="ty_Gd_E8p09g91dcB47R-8">
          <mxGeometry relative="1" as="geometry">
            <mxPoint x="290" y="145" as="targetPoint" />
          </mxGeometry>
        </mxCell>
        <mxCell id="ty_Gd_E8p09g91dcB47R-23" value="return" style="html=1;verticalAlign=bottom;endArrow=open;dashed=1;endSize=8;curved=0;rounded=0;exitX=0;exitY=1;exitDx=0;exitDy=-5;" edge="1" source="ty_Gd_E8p09g91dcB47R-21" parent="1" target="ty_Gd_E8p09g91dcB47R-8">
          <mxGeometry relative="1" as="geometry">
            <mxPoint x="290" y="245" as="targetPoint" />
          </mxGeometry>
        </mxCell>
        <mxCell id="ty_Gd_E8p09g91dcB47R-25" value="Ok" style="html=1;align=left;spacingLeft=2;endArrow=block;rounded=0;edgeStyle=orthogonalEdgeStyle;curved=0;rounded=0;" edge="1" target="ty_Gd_E8p09g91dcB47R-9" parent="1" source="ty_Gd_E8p09g91dcB47R-9">
          <mxGeometry relative="1" as="geometry">
            <mxPoint x="410" y="150" as="sourcePoint" />
            <Array as="points">
              <mxPoint x="440" y="150" />
              <mxPoint x="440" y="180" />
            </Array>
            <mxPoint x="415" y="180" as="targetPoint" />
          </mxGeometry>
        </mxCell>
        <mxCell id="ty_Gd_E8p09g91dcB47R-29" value="Registro" style="edgeLabel;html=1;align=center;verticalAlign=middle;resizable=0;points=[];" vertex="1" connectable="0" parent="ty_Gd_E8p09g91dcB47R-25">
          <mxGeometry x="0.6924" y="-1" relative="1" as="geometry">
            <mxPoint as="offset" />
          </mxGeometry>
        </mxCell>
        <mxCell id="ty_Gd_E8p09g91dcB47R-27" value="save" style="html=1;verticalAlign=bottom;endArrow=block;curved=0;rounded=0;entryX=0;entryY=0;entryDx=0;entryDy=5;" edge="1" target="ty_Gd_E8p09g91dcB47R-26" parent="1" source="ty_Gd_E8p09g91dcB47R-21">
          <mxGeometry relative="1" as="geometry">
            <mxPoint x="450" y="185" as="sourcePoint" />
          </mxGeometry>
        </mxCell>
        <mxCell id="ty_Gd_E8p09g91dcB47R-28" value="return" style="html=1;verticalAlign=bottom;endArrow=open;dashed=1;endSize=8;curved=0;rounded=0;exitX=0;exitY=1;exitDx=0;exitDy=-5;" edge="1" source="ty_Gd_E8p09g91dcB47R-26" parent="1" target="ty_Gd_E8p09g91dcB47R-9">
          <mxGeometry relative="1" as="geometry">
            <mxPoint x="450" y="255" as="targetPoint" />
          </mxGeometry>
        </mxCell>
      </root>
    </mxGraphModel>
  </diagram>
</mxfile>
